HIERARCHY
ROOT hip
{
  OFFSET -318.63 79.9684 -32.8705
  CHANNELS 6 Xposition Yposition Zposition Zrotation Xrotation Yrotation
  JOINT abdomen
  {
    OFFSET 0 20.6881 -0.73152
    CHANNELS 3 Zrotation Xrotation Yrotation
    JOINT chest
    {
      OFFSET 0 11.7043 -0.48768
      CHANNELS 3 Zrotation Xrotation Yrotation
      JOINT neck
      {
        OFFSET 0 22.1894 -2.19456
        CHANNELS 3 Zrotation Xrotation Yrotation
        JOINT head
        {
          OFFSET -0.24384 7.07133 1.2192
          CHANNELS 3 Zrotation Xrotation Yrotation
          JOINT leftEye
          {
            OFFSET 4.14528 8.04674 8.04672
            CHANNELS 3 Zrotation Xrotation Yrotation
            End Site
            {
              OFFSET 1 0 0
            }
          }
          JOINT rightEye
          {
            OFFSET -3.6576 8.04674 8.04672
            CHANNELS 3 Zrotation Xrotation Yrotation
            End Site
            {
              OFFSET 1 0 0
            }
          }
        }
      }
      JOINT rCollar
      {
        OFFSET -2.68224 19.2634 -4.8768
        CHANNELS 3 Zrotation Xrotation Yrotation
        JOINT rShldr
        {
          OFFSET -8.77824 -1.95073 1.46304
          CHANNELS 3 Zrotation Xrotation Yrotation
          JOINT rForeArm
          {
            OFFSET -28.1742 -1.7115 0.48768
            CHANNELS 3 Zrotation Xrotation Yrotation
            JOINT rHand
            {
              OFFSET -22.5879 0.773209 7.07136
              CHANNELS 3 Zrotation Xrotation Yrotation
              JOINT rThumb1
              {
                OFFSET -1.2192 -0.487915 3.41376
                CHANNELS 3 Zrotation Xrotation Yrotation
                JOINT rThumb2
                {
                  OFFSET -3.37035 -0.52449 3.41376
                  CHANNELS 3 Zrotation Xrotation Yrotation
                  End Site
                  {
                    OFFSET -1.78271 -1.18214 1.43049
                  }
                }
              }
              JOINT rIndex1
              {
                OFFSET -7.75947 0.938293 5.60832
                CHANNELS 3 Zrotation Xrotation Yrotation
                JOINT rIndex2
                {
                  OFFSET -2.54057 -0.884171 1.56538
                  CHANNELS 3 Zrotation Xrotation Yrotation
                  End Site
                  {
                    OFFSET -1.62519 -0.234802 1.16502
                  }
                }
              }
              JOINT rMid1
              {
                OFFSET -8.24714 1.18213 3.41376
                CHANNELS 3 Zrotation Xrotation Yrotation
                JOINT rMid2
                {
                  OFFSET -3.10165 -0.590103 1.0647
                  CHANNELS 3 Zrotation Xrotation Yrotation
                  End Site
                  {
                    OFFSET -2.48547 -0.328903 0.83742
                  }
                }
              }
              JOINT rRing1
              {
                OFFSET -8.82822 0.546677 1.51678
                CHANNELS 3 Zrotation Xrotation Yrotation
                JOINT rRing2
                {
                  OFFSET -2.60934 -0.819778 -0.0198488
                  CHANNELS 3 Zrotation Xrotation Yrotation
                  End Site
                  {
                    OFFSET -2.33842 -0.294052 0.168128
                  }
                }
              }
              JOINT rPinky1
              {
                OFFSET -8.27202 -0.0477905 -0.4584
                CHANNELS 3 Zrotation Xrotation Yrotation
                JOINT rPinky2
                {
                  OFFSET -1.82734 -0.647385 -0.700984
                  CHANNELS 3 Zrotation Xrotation Yrotation
                  End Site
                  {
                    OFFSET -1.69225 -0.51767 -0.607171
                  }
                }
              }
            }
          }
        }
      }
      JOINT lCollar
      {
        OFFSET 2.68224 19.2634 -4.8768
        CHANNELS 3 Zrotation Xrotation Yrotation
        JOINT lShldr
        {
          OFFSET 8.77824 -1.95073 1.46304
          CHANNELS 3 Zrotation Xrotation Yrotation
          JOINT lForeArm
          {
            OFFSET 28.1742 -1.7115 0.48768
            CHANNELS 3 Zrotation Xrotation Yrotation
            JOINT lHand
            {
              OFFSET 22.5879 0.773209 7.07136
              CHANNELS 3 Zrotation Xrotation Yrotation
              JOINT lThumb1
              {
                OFFSET 1.2192 -0.487915 3.41376
                CHANNELS 3 Zrotation Xrotation Yrotation
                JOINT lThumb2
                {
                  OFFSET 3.37035 -0.52449 3.41376
                  CHANNELS 3 Zrotation Xrotation Yrotation
                  End Site
                  {
                    OFFSET 1.78271 -1.18214 1.43049
                  }
                }
              }
              JOINT lIndex1
              {
                OFFSET 7.75947 0.938293 5.60832
                CHANNELS 3 Zrotation Xrotation Yrotation
                JOINT lIndex2
                {
                  OFFSET 2.54057 -0.884171 1.56538
                  CHANNELS 3 Zrotation Xrotation Yrotation
                  End Site
                  {
                    OFFSET 1.62519 -0.234802 1.16502
                  }
                }
              }
              JOINT lMid1
              {
                OFFSET 8.24714 1.18213 3.41376
                CHANNELS 3 Zrotation Xrotation Yrotation
                JOINT lMid2
                {
                  OFFSET 3.10165 -0.590103 1.0647
                  CHANNELS 3 Zrotation Xrotation Yrotation
                  End Site
                  {
                    OFFSET 2.48547 -0.328903 0.83742
                  }
                }
              }
              JOINT lRing1
              {
                OFFSET 8.82822 0.546677 1.51678
                CHANNELS 3 Zrotation Xrotation Yrotation
                JOINT lRing2
                {
                  OFFSET 2.60934 -0.819778 -0.0198488
                  CHANNELS 3 Zrotation Xrotation Yrotation
                  End Site
                  {
                    OFFSET 2.33842 -0.294052 0.168128
                  }
                }
              }
              JOINT lPinky1
              {
                OFFSET 8.27202 -0.0477905 -0.4584
                CHANNELS 3 Zrotation Xrotation Yrotation
                JOINT lPinky2
                {
                  OFFSET 1.82734 -0.647385 -0.700984
                  CHANNELS 3 Zrotation Xrotation Yrotation
                  End Site
                  {
                    OFFSET 1.69225 -0.51767 -0.607171
                  }
                }
              }
            }
          }
        }
      }
    }
  }
  JOINT rButtock
  {
    OFFSET -8.77824 4.35084 1.2192
    CHANNELS 3 Zrotation Xrotation Yrotation
    JOINT rThigh
    {
      OFFSET 0 -1.70687 -2.19456
      CHANNELS 3 Zrotation Xrotation Yrotation
      JOINT rShin
      {
        OFFSET 0 -36.8199 0.73152
        CHANNELS 3 Zrotation Xrotation Yrotation
        JOINT rFoot
        {
          OFFSET 0.73152 -45.1104 -5.12064
          CHANNELS 3 Zrotation Xrotation Yrotation
          End Site
          {
            OFFSET -1.1221 -3.69964 12.103
          }
        }
      }
    }
  }
  JOINT lButtock
  {
    OFFSET 8.77824 4.35084 1.2192
    CHANNELS 3 Zrotation Xrotation Yrotation
    JOINT lThigh
    {
      OFFSET 0 -1.70687 -2.19456
      CHANNELS 3 Zrotation Xrotation Yrotation
      JOINT lShin
      {
        OFFSET 0 -36.8199 0.73152
        CHANNELS 3 Zrotation Xrotation Yrotation
        JOINT lFoot
        {
          OFFSET -0.73152 -45.1104 -5.12064
          CHANNELS 3 Zrotation Xrotation Yrotation
          End Site
          {
            OFFSET 1.1221 -3.69964 12.103
          }
        }
      }
    }
  }
}
MOTION
Frames:	7
Frame Time:	0.00833333
294.106 67.9041 -27.0498 2.2528 0.0105378 -0.0431293 -2.96286 0.00183595 -0.079915 -0.816449 0.0169084 -0.141251 6.78863e-014 0 -9.93926e-017 2.03661e-013 9.54166e-015 -2.5314e-016 -0 0 0 -0 0 0 3.41918e-014 1.84808e-016 1.98785e-016 7.18122e-013 4.2366e-015 1.19271e-015 1.23394e-011 -3.56162e-012 -1.43125e-013 1.41389e-010 4.44547e-012 -9.22361e-014 3.33479e-010 1.91569e-012 -5.1843e-013 5.75887e-010 3.3046e-012 -9.06458e-013 3.33483e-010 1.91708e-012 -5.24792e-013 7.73091 5.47488 0.417314 3.33479e-010 1.91549e-012 -5.12069e-013 2.90554 0.965183 0.102902 3.33485e-010 1.91559e-012 -5.1525e-013 10.2786 0.731801 0.0259123 3.33479e-010 1.91628e-012 -5.02528e-013 2.22167 -0.733487 -0.20892 3.39935e-014 1.87137e-016 -1.49089e-016 7.15935e-013 3.926e-015 1.98785e-016 1.23672e-011 3.827e-012 -1.27222e-013 1.41366e-010 -2.96018e-012 -6.99722e-014 3.33498e-010 1.88193e-012 -4.96167e-013 5.75946e-010 3.25053e-012 -8.67496e-013 3.33491e-010 1.8817e-012 -4.86625e-013 -7.73091 5.47488 -0.417314 3.33499e-010 1.88209e-012 -4.96167e-013 -2.90554 0.965183 -0.102902 3.33495e-010 1.88189e-012 -4.96962e-013 -10.2786 0.731801 -0.0259123 3.33504e-010 1.88408e-012 -5.05708e-013 -2.22167 -0.733487 0.20892 -2.03217e-016 0 -3.88251e-019 -1.77277 -1.93398 0.0122242 -0.00866468 -2.07864 -0.0712116 -0.477089 3.99977 0.135177 2.03217e-016 0 3.88251e-019 -2.72862 -9.04327 0.303244 -0.00826656 10.7976 -0.214901 0.538472 -1.7671 -0.0242062 
292.681 64.3228 -33.002 6.34893 2.78757 -23.7568 -2.19628 10.0074 -0.995927 -0.99967 -2.09093 -0.422351 -0.68024 4.71362 -1.86311 4.24363 -17.5319 -2.10573 -0 0 0 -0 0 0 2.26585e-014 2.66381e-013 8.3311e-015 21.3516 11.0468 3.74352 -9.96687 -6.82646 12.2812 0.0235875 -3.40785 -0.475886 3.85385e-011 -2.12862e-010 5.77227e-010 5.9592e-011 -3.67521e-010 9.95613e-010 3.85424e-011 -2.1286e-010 5.77221e-010 7.73091 5.47488 0.417314 3.85387e-011 -2.12862e-010 5.7723e-010 2.90554 0.965183 0.102902 3.85449e-011 -2.12862e-010 5.77228e-010 10.2786 0.731801 0.0259123 3.85364e-011 -2.12861e-010 5.77237e-010 2.22167 -0.733487 -0.20892 2.24357e-014 2.66383e-013 7.96381e-015 -20.2462 8.97788 -3.72179 9.29849 -6.16135 -11.8173 -0.119409 -7.67808 1.04442 1.09588e-010 -1.80314e-010 -4.17152e-010 2.00248e-010 -3.10714e-010 -7.23337e-010 1.09581e-010 -1.80313e-010 -4.1714e-010 -7.73091 5.47488 -0.417314 1.09589e-010 -1.80314e-010 -4.17151e-010 -2.90554 0.965183 -0.102902 1.09584e-010 -1.80314e-010 -4.17153e-010 -10.2786 0.731801 -0.0259123 1.09594e-010 -1.80312e-010 -4.17162e-010 -2.22167 -0.733487 0.20892 -2.03217e-016 0 -3.88251e-019 -1.59195 -20.6495 -1.3375 0.0206791 16.5815 0.179926 -0.56397 -1.6448 -1.39796 2.03217e-016 0 3.88251e-019 -1.48247 -25.2986 2.7273 -0.0135295 25.2871 -0.44465 0.477541 -5.91184 -0.182559 
292.682 64.3234 -33.0009 12.8678 4.11422 -48.9337 -1.01627 20.5754 -2.06454 -1.21609 -4.31918 -0.720936 -1.06198 9.68004 -3.87488 7.0304 -35.98 -5.10613 -0 0 0 -0 0 0 1.05699e-014 6.20844e-013 1.94995e-014 42.2414 22.5627 8.1878 -17.3549 -12.9892 25.789 -0.0134498 -7.00931 -0.984546 -2.80595e-010 -4.43183e-010 1.19661e-009 -4.9899e-010 -7.65167e-010 2.0639e-009 -2.80591e-010 -4.43181e-010 1.1966e-009 7.73091 5.47488 0.417314 -2.80595e-010 -4.43182e-010 1.19661e-009 2.90554 0.965183 0.102902 -2.80588e-010 -4.43182e-010 1.1966e-009 10.2786 0.731801 0.0259123 -2.80599e-010 -4.43181e-010 1.19661e-009 2.22167 -0.733487 -0.20892 1.03187e-014 6.20848e-013 1.91082e-014 -40.3233 18.3407 -7.96961 16.3979 -11.7952 -24.7233 0.0695208 -15.7858 2.21267 -1.28541e-010 -3.74059e-010 -8.65229e-010 -1.99195e-010 -6.44533e-010 -1.50026e-009 -1.28549e-010 -3.74058e-010 -8.65215e-010 -7.73091 5.47488 -0.417314 -1.2854e-010 -3.7406e-010 -8.65227e-010 -2.90554 0.965183 -0.102902 -1.28545e-010 -3.7406e-010 -8.65232e-010 -10.2786 0.731801 -0.0259123 -1.28536e-010 -3.74058e-010 -8.6524e-010 -2.22167 -0.733487 0.20892 -2.03217e-016 0 -3.88251e-019 -2.634 -40.3953 -3.39804 -0.161361 36.3075 0.533587 -0.986106 -7.60166 -3.04327 2.03217e-016 0 3.88251e-019 1.83537 -42.3534 6.44072 0.150455 40.6037 -0.795492 0.387908 -10.2935 -0.353065 
292.683 64.3237 -33.0025 19.4928 2.94199 -71.3167 0.424519 29.984 -3.21284 -1.42851 -6.30584 -0.989697 -1.09849 14.0801 -5.74352 6.81127 -52.2168 -9.8622 -0 0 0 -0 0 0 -4.08214e-016 7.98772e-013 2.45957e-014 59.0759 32.5204 13.1054 -21.492 -16.6896 38.4719 -0.101379 -10.2207 -1.44812 -5.51343e-010 -6.42417e-010 1.73272e-009 -9.72998e-010 -1.10917e-009 2.98865e-009 -5.51339e-010 -6.42415e-010 1.73271e-009 7.73091 5.47488 0.417314 -5.51342e-010 -6.42416e-010 1.73271e-009 2.90554 0.965183 0.102902 -5.51335e-010 -6.42416e-010 1.73271e-009 10.2786 0.731801 0.0259123 -5.51349e-010 -6.42415e-010 1.73271e-009 2.22167 -0.733487 -0.20892 -6.80114e-016 7.98776e-013 2.41896e-014 -56.9188 26.452 -12.3372 20.5903 -15.3247 -36.7508 0.542715 -23.0023 3.37367 -3.38232e-010 -5.44705e-010 -1.25046e-009 -5.51147e-010 -9.38643e-010 -2.16828e-009 -3.3824e-010 -5.44703e-010 -1.25045e-009 -7.73091 5.47488 -0.417314 -3.38232e-010 -5.44706e-010 -1.25046e-009 -2.90554 0.965183 -0.102902 -3.38237e-010 -5.44707e-010 -1.25047e-009 -10.2786 0.731801 -0.0259123 -3.38228e-010 -5.44704e-010 -1.25048e-009 -2.22167 -0.733487 0.20892 -2.03217e-016 0 -3.88251e-019 -5.85778 -57.8964 -7.1241 -0.676346 53.8967 1.11955 -1.65984 -12.8955 -4.57752 2.03217e-016 0 3.88251e-019 8.28571 -57.2482 12.6379 0.576163 54.2606 -1.34221 0.284983 -14.2009 -0.512022 
292.686 64.324 -32.9996 23.8406 0.645474 -86.719 1.71291 36.5258 -4.20295 -1.58681 -7.68922 -1.17914 -0.945 17.122 -7.10763 3.05105 -63.2036 -16.4747 -0 0 0 -0 0 0 -8.60989e-015 5.35362e-013 1.45113e-014 69.4855 39.1623 17.4452 -23.3222 -17.8818 47.5316 -0.194269 -12.4596 -1.77951 -7.01125e-010 -7.63934e-010 2.06066e-009 -1.23557e-009 -1.31908e-009 3.5546e-009 -7.01121e-010 -7.63933e-010 2.06066e-009 7.73091 5.47488 0.417314 -7.01124e-010 -7.63933e-010 2.06066e-009 2.90554 0.965183 0.102902 -7.01117e-010 -7.63934e-010 2.06066e-009 10.2786 0.731801 0.0259123 -7.01132e-010 -7.63932e-010 2.06066e-009 2.22167 -0.733487 -0.20892 -8.88376e-015 5.35366e-013 1.41137e-014 -67.6169 31.8898 -15.8921 22.5627 -16.626 -45.3385 1.07075 -28.0209 4.28931 -4.7683e-010 -6.57602e-010 -1.47859e-009 -7.84369e-010 -1.13348e-009 -2.56403e-009 -4.76838e-010 -6.576e-010 -1.47857e-009 -7.73091 5.47488 -0.417314 -4.76829e-010 -6.57603e-010 -1.47859e-009 -2.90554 0.965183 -0.102902 -4.76835e-010 -6.57603e-010 -1.47859e-009 -10.2786 0.731801 -0.0259123 -4.76826e-010 -6.57601e-010 -1.4786e-009 -2.22167 -0.733487 0.20892 -2.03217e-016 0 -3.88251e-019 -12.1036 -69.8838 -13.5182 -1.57458 66.1471 2.02721 -2.30717 -16.5709 -5.71064 2.03217e-016 0 3.88251e-019 17.7249 -67.129 21.5919 1.23074 63.7722 -2.05741 0.19897 -16.923 -0.630675 
292.688 64.3243 -32.9998 25.3691 -0.568555 -92.682 2.30158 39.0815 -4.65533 -1.64928 -8.22839 -1.25427 -0.842506 18.3036 -7.65893 -0.226069 -67.3281 -20.7976 -0 0 0 -0 0 0 -1.26587e-014 -6.25123e-013 -2.62151e-014 73.172 41.6718 19.4426 -23.8767 -17.9907 51.0677 -0.237996 -13.3386 -1.91188 -6.61516e-010 -7.64588e-010 2.07902e-009 -1.16725e-009 -1.32039e-009 3.58697e-009 -6.6151e-010 -7.64587e-010 2.07901e-009 7.73091 5.47488 0.417314 -6.61514e-010 -7.64588e-010 2.07901e-009 2.90554 0.965183 0.102902 -6.61506e-010 -7.64588e-010 2.07901e-009 10.2786 0.731801 0.0259123 -6.61523e-010 -7.64587e-010 2.07901e-009 2.22167 -0.733487 -0.20892 -1.29019e-014 -6.25119e-013 -2.65657e-014 -71.5803 33.9501 -17.433 23.1791 -16.8352 -48.7063 1.32874 -29.9859 4.68026 -5.1526e-010 -6.85981e-010 -1.46433e-009 -8.50799e-010 -1.18309e-009 -2.53983e-009 -5.15268e-010 -6.85979e-010 -1.46431e-009 -7.73091 5.47488 -0.417314 -5.1526e-010 -6.85982e-010 -1.46433e-009 -2.90554 0.965183 -0.102902 -5.15267e-010 -6.85982e-010 -1.46433e-009 -10.2786 0.731801 -0.0259123 -5.15257e-010 -6.8598e-010 -1.46434e-009 -2.22167 -0.733487 0.20892 -2.03217e-016 0 -3.88251e-019 -17.273 -74.4266 -18.7056 -2.25271 70.9297 2.70054 -2.60701 -18.0112 -6.18126 2.03217e-016 0 3.88251e-019 23.9421 -70.7231 27.5522 1.65623 67.4859 -2.50113 0.160103 -17.9857 -0.685777 
292.689 64.3245 -33.0005 25.2131 -0.426655 -92.0136 2.24134 38.7993 -4.61103 -1.63866 -8.16469 -1.24681 -0.853946 18.1689 -7.59802 0.194138 -66.8744 -20.2567 -0 0 0 -0 0 0 -1.37539e-014 -2.41308e-012 -8.83815e-014 72.744 41.4089 19.2378 -23.8151 -17.9833 50.6648 -0.233141 -13.2468 -1.89798 -4.8758e-010 -6.79484e-010 1.8771e-009 -8.64231e-010 -1.17371e-009 3.23971e-009 -4.87572e-010 -6.79485e-010 1.87709e-009 7.73091 5.47488 0.417314 -4.87577e-010 -6.79487e-010 1.87709e-009 2.90554 0.965183 0.102902 -4.87569e-010 -6.79486e-010 1.87709e-009 10.2786 0.731801 0.0259123 -4.87586e-010 -6.79484e-010 1.87709e-009 2.22167 -0.733487 -0.20892 -1.39433e-014 -2.41308e-012 -8.86579e-014 -71.1496 33.7166 -17.2567 23.1128 -16.819 -48.3293 1.29948 -29.7772 4.63762 -4.82174e-010 -6.54165e-010 -1.278e-009 -7.98119e-010 -1.12924e-009 -2.2175e-009 -4.8218e-010 -6.54163e-010 -1.27799e-009 -7.73091 5.47488 -0.417314 -4.82172e-010 -6.54165e-010 -1.278e-009 -2.90554 0.965183 -0.102902 -4.82181e-010 -6.54165e-010 -1.27801e-009 -10.2786 0.731801 -0.0259123 -4.8217e-010 -6.54164e-010 -1.27801e-009 -2.22167 -0.733487 0.20892 -2.03217e-016 0 -3.88251e-019 -16.5594 -73.9289 -18.0004 -2.15764 70.3844 2.60653 -2.58087 -17.8645 -6.14597 2.03217e-016 0 3.88251e-019 23.1613 -70.3367 26.8031 1.59821 67.0617 -2.44057 0.160964 -17.8633 -0.693049 
